<?xml version="1.0" encoding="UTF-8"?>
<svg xmlns="http://www.w3.org/2000/svg" width="31" height="31" viewBox="0 0 31 31" fill="none">
  <path fill-rule="evenodd" clip-rule="evenodd" d="M15.3 0C6.85005 0 0 6.85005 0 15.3C0 23.75 6.85005 30.6 15.3 30.6C23.75 30.6 30.6 23.75 30.6 15.3C30.6 6.85005 23.75 0 15.3 0ZM20.5502 16.4441H6.97292C6.6693 16.4441 6.37812 16.3235 6.16343 16.1088C5.94874 15.8941 5.82812 15.6029 5.82812 15.2993C5.82812 14.9957 5.94874 14.7045 6.16343 14.4898C6.37812 14.2751 6.6693 14.1545 6.97292 14.1545H20.5502L16.3946 9.16317C16.2982 9.04749 16.2256 8.91393 16.1809 8.77014C16.1362 8.62635 16.1203 8.47516 16.1341 8.32521C16.1479 8.17527 16.1912 8.02953 16.2614 7.89634C16.3317 7.76314 16.4275 7.64512 16.5434 7.54901C16.7494 7.37834 17.0086 7.28519 17.2761 7.28571C17.4443 7.28543 17.6104 7.32222 17.7628 7.39345C17.9151 7.46468 18.0499 7.56861 18.1576 7.69783L23.8815 14.5666C23.9201 14.6212 23.9545 14.6786 23.9846 14.7383C23.994 14.7618 24.0091 14.7814 24.0237 14.8003C24.0448 14.8276 24.0647 14.8534 24.0647 14.8871C24.1166 15.0184 24.1438 15.1581 24.1449 15.2993C24.1438 15.4404 24.1166 15.5801 24.0647 15.7114C24.0553 15.7349 24.0402 15.7545 24.0256 15.7734C24.0045 15.8006 23.9846 15.8264 23.9846 15.8602C23.9545 15.9199 23.9201 15.9773 23.8815 16.0319L18.1576 22.9007C17.9633 23.1345 17.684 23.2815 17.3813 23.3094C17.0786 23.3373 16.7772 23.2439 16.5434 23.0495C16.3096 22.8552 16.1626 22.576 16.1347 22.2733C16.1209 22.1234 16.1367 21.9722 16.1813 21.8285C16.2259 21.6847 16.2984 21.5511 16.3946 21.4354L20.5502 16.4441Z" fill="white"></path>
</svg>
